<svg width="1055" height="159" viewBox="0 0 1055 159" fill="none" xmlns="http://www.w3.org/2000/svg">
<mask id="path-1-outside-1_23_63" maskUnits="userSpaceOnUse" x="339.16" y="20.6001" width="716" height="138" fill="black">
<rect fill="white" x="339.16" y="20.6001" width="716" height="138"/>
<path d="M410.32 76.3601V129H393.52L391.7 119.76C389.927 122.84 386.847 125.407 382.46 127.46C378.073 129.42 372.94 130.4 367.06 130.4C358.473 130.4 351.987 128.487 347.6 124.66C343.307 120.833 341.16 115.093 341.16 107.44C341.16 98.8534 343.727 92.7401 348.86 89.1001C353.993 85.3668 361.693 83.5001 371.96 83.5001H391.56V80.8401C391.56 77.6668 391.093 75.1468 390.16 73.2801C389.32 71.4134 387.687 70.0601 385.26 69.2201C382.833 68.2868 379.38 67.8201 374.9 67.8201C369.58 67.8201 364.213 68.3334 358.8 69.3601V53.2601C364.587 52.4201 370.653 52.0001 377 52.0001C389.04 52.0001 397.58 54.0534 402.62 58.1601C407.753 62.1734 410.32 68.2401 410.32 76.3601ZM371.4 115.84C376.253 115.84 380.453 114.953 384 113.18C387.547 111.407 390.067 108.98 391.56 105.9V96.5201H374.62C369.113 96.5201 365.24 97.2201 363 98.6201C360.853 100.02 359.78 102.773 359.78 106.88C359.78 109.96 360.713 112.247 362.58 113.74C364.447 115.14 367.387 115.84 371.4 115.84Z"/>
<path d="M437.506 110.8V22.6001H456.406V106.32C456.406 109.68 456.873 111.967 457.806 113.18C458.74 114.3 460.42 114.86 462.846 114.86C464.246 114.86 465.693 114.673 467.186 114.3V129C464.573 129.56 461.726 129.84 458.646 129.84C450.9 129.84 445.44 128.347 442.266 125.36C439.093 122.373 437.506 117.52 437.506 110.8Z"/>
<path d="M529.596 129L507.756 96.2401H504.256V129H485.356V22.6001H504.256V81.8201H508.596L529.456 53.4001H551.436L523.716 88.5401L552.556 129H529.596Z"/>
<path d="M569.016 53.4001H587.776V129H569.016V53.4001Z"/>
<path d="M682.304 77.2001V129H663.404V82.3801C663.404 76.8734 662.517 73.0468 660.744 70.9001C659.064 68.6601 655.751 67.5401 650.804 67.5401C646.137 67.5401 642.404 68.3801 639.604 70.0601C636.804 71.7401 634.751 74.6334 633.444 78.7401V129H614.544V53.4001H633.444V62.7801C635.497 59.1401 638.577 56.4334 642.684 54.6601C646.791 52.8868 651.597 52.0001 657.104 52.0001C666.251 52.0001 672.737 54.1001 676.564 58.3001C680.391 62.4068 682.304 68.7068 682.304 77.2001Z"/>
<path d="M736.458 157C729.738 157 722.738 156.393 715.458 155.18V140.06C721.618 141.553 728.198 142.3 735.198 142.3C743.504 142.3 749.478 140.807 753.118 137.82C756.851 134.833 758.718 129.7 758.718 122.42V117.66C757.038 121.393 754.378 124.24 750.738 126.2C747.191 128.067 742.151 129 735.618 129C724.044 129 716.018 125.733 711.538 119.2C707.058 112.667 704.818 103.1 704.818 90.5001C704.818 78.6468 707.104 69.2668 711.678 62.3601C716.251 55.4534 724.231 52.0001 735.618 52.0001C742.338 52.0001 747.471 53.0268 751.018 55.0801C754.564 57.0401 757.131 59.9334 758.718 63.7601V53.4001H777.338V123.26C777.338 134.273 774.164 142.627 767.818 148.32C761.471 154.107 751.018 157 736.458 157ZM740.798 115C745.838 115 749.711 114.067 752.418 112.2C755.218 110.333 757.084 107.673 758.018 104.22C759.044 100.673 759.558 96.1001 759.558 90.5001C759.558 85.0868 759.044 80.6534 758.018 77.2001C757.084 73.6534 755.218 70.9468 752.418 69.0801C749.711 67.2134 745.838 66.2801 740.798 66.2801C734.078 66.2801 729.644 68.4268 727.498 72.7201C725.351 76.9201 724.278 82.8468 724.278 90.5001C724.278 98.5268 725.351 104.64 727.498 108.84C729.738 112.947 734.171 115 740.798 115Z"/>
<path d="M868.672 129H805.522V24.9001H826.672V110.55H868.672V129Z"/>
<path d="M953.504 76.3601V129H936.704L934.884 119.76C933.111 122.84 930.031 125.407 925.644 127.46C921.257 129.42 916.124 130.4 910.244 130.4C901.657 130.4 895.171 128.487 890.784 124.66C886.491 120.833 884.344 115.093 884.344 107.44C884.344 98.8534 886.911 92.7401 892.044 89.1001C897.177 85.3668 904.877 83.5001 915.144 83.5001H934.744V80.8401C934.744 77.6668 934.277 75.1468 933.344 73.2801C932.504 71.4134 930.871 70.0601 928.444 69.2201C926.017 68.2868 922.564 67.8201 918.084 67.8201C912.764 67.8201 907.397 68.3334 901.984 69.3601V53.2601C907.771 52.4201 913.837 52.0001 920.184 52.0001C932.224 52.0001 940.764 54.0534 945.804 58.1601C950.937 62.1734 953.504 68.2401 953.504 76.3601ZM914.584 115.84C919.437 115.84 923.637 114.953 927.184 113.18C930.731 111.407 933.251 108.98 934.744 105.9V96.5201H917.804C912.297 96.5201 908.424 97.2201 906.184 98.6201C904.037 100.02 902.964 102.773 902.964 106.88C902.964 109.96 903.897 112.247 905.764 113.74C907.631 115.14 910.571 115.84 914.584 115.84Z"/>
<path d="M1053.07 91.2001C1053.07 103.427 1050.88 113.04 1046.49 120.04C1042.1 126.947 1034.22 130.4 1022.83 130.4C1016.02 130.4 1010.79 129.327 1007.15 127.18C1003.51 125.033 1000.9 121.953 999.31 117.94L997.91 129H980.83V22.6001H999.73V63.3401C1003.37 55.7801 1011.07 52.0001 1022.83 52.0001C1030.76 52.0001 1036.92 53.5868 1041.31 56.7601C1045.79 59.8401 1048.87 64.2268 1050.55 69.9201C1052.23 75.5201 1053.07 82.6134 1053.07 91.2001ZM1017.23 115.98C1023.95 115.98 1028.38 113.833 1030.53 109.54C1032.68 105.247 1033.75 99.1334 1033.75 91.2001C1033.75 85.7868 1033.33 81.3068 1032.49 77.7601C1031.74 74.2134 1030.16 71.4134 1027.73 69.3601C1025.3 67.3068 1021.8 66.2801 1017.23 66.2801C1010.23 66.2801 1005.38 68.3334 1002.67 72.4401C999.964 76.5468 998.61 82.8001 998.61 91.2001C998.61 99.4134 999.964 105.62 1002.67 109.82C1005.47 113.927 1010.32 115.98 1017.23 115.98Z"/>
</mask>
<path d="M410.32 76.3601V129H393.52L391.7 119.76C389.927 122.84 386.847 125.407 382.46 127.46C378.073 129.42 372.94 130.4 367.06 130.4C358.473 130.4 351.987 128.487 347.6 124.66C343.307 120.833 341.16 115.093 341.16 107.44C341.16 98.8534 343.727 92.7401 348.86 89.1001C353.993 85.3668 361.693 83.5001 371.96 83.5001H391.56V80.8401C391.56 77.6668 391.093 75.1468 390.16 73.2801C389.32 71.4134 387.687 70.0601 385.26 69.2201C382.833 68.2868 379.38 67.8201 374.9 67.8201C369.58 67.8201 364.213 68.3334 358.8 69.3601V53.2601C364.587 52.4201 370.653 52.0001 377 52.0001C389.04 52.0001 397.58 54.0534 402.62 58.1601C407.753 62.1734 410.32 68.2401 410.32 76.3601ZM371.4 115.84C376.253 115.84 380.453 114.953 384 113.18C387.547 111.407 390.067 108.98 391.56 105.9V96.5201H374.62C369.113 96.5201 365.24 97.2201 363 98.6201C360.853 100.02 359.78 102.773 359.78 106.88C359.78 109.96 360.713 112.247 362.58 113.74C364.447 115.14 367.387 115.84 371.4 115.84Z" fill="black"/>
<path d="M437.506 110.8V22.6001H456.406V106.32C456.406 109.68 456.873 111.967 457.806 113.18C458.74 114.3 460.42 114.86 462.846 114.86C464.246 114.86 465.693 114.673 467.186 114.3V129C464.573 129.56 461.726 129.84 458.646 129.84C450.9 129.84 445.44 128.347 442.266 125.36C439.093 122.373 437.506 117.52 437.506 110.8Z" fill="black"/>
<path d="M529.596 129L507.756 96.2401H504.256V129H485.356V22.6001H504.256V81.8201H508.596L529.456 53.4001H551.436L523.716 88.5401L552.556 129H529.596Z" fill="black"/>
<path d="M569.016 53.4001H587.776V129H569.016V53.4001Z" fill="black"/>
<path d="M682.304 77.2001V129H663.404V82.3801C663.404 76.8734 662.517 73.0468 660.744 70.9001C659.064 68.6601 655.751 67.5401 650.804 67.5401C646.137 67.5401 642.404 68.3801 639.604 70.0601C636.804 71.7401 634.751 74.6334 633.444 78.7401V129H614.544V53.4001H633.444V62.7801C635.497 59.1401 638.577 56.4334 642.684 54.6601C646.791 52.8868 651.597 52.0001 657.104 52.0001C666.251 52.0001 672.737 54.1001 676.564 58.3001C680.391 62.4068 682.304 68.7068 682.304 77.2001Z" fill="black"/>
<path d="M736.458 157C729.738 157 722.738 156.393 715.458 155.18V140.06C721.618 141.553 728.198 142.3 735.198 142.3C743.504 142.3 749.478 140.807 753.118 137.82C756.851 134.833 758.718 129.7 758.718 122.42V117.66C757.038 121.393 754.378 124.24 750.738 126.2C747.191 128.067 742.151 129 735.618 129C724.044 129 716.018 125.733 711.538 119.2C707.058 112.667 704.818 103.1 704.818 90.5001C704.818 78.6468 707.104 69.2668 711.678 62.3601C716.251 55.4534 724.231 52.0001 735.618 52.0001C742.338 52.0001 747.471 53.0268 751.018 55.0801C754.564 57.0401 757.131 59.9334 758.718 63.7601V53.4001H777.338V123.26C777.338 134.273 774.164 142.627 767.818 148.32C761.471 154.107 751.018 157 736.458 157ZM740.798 115C745.838 115 749.711 114.067 752.418 112.2C755.218 110.333 757.084 107.673 758.018 104.22C759.044 100.673 759.558 96.1001 759.558 90.5001C759.558 85.0868 759.044 80.6534 758.018 77.2001C757.084 73.6534 755.218 70.9468 752.418 69.0801C749.711 67.2134 745.838 66.2801 740.798 66.2801C734.078 66.2801 729.644 68.4268 727.498 72.7201C725.351 76.9201 724.278 82.8468 724.278 90.5001C724.278 98.5268 725.351 104.64 727.498 108.84C729.738 112.947 734.171 115 740.798 115Z" fill="black"/>
<path d="M868.672 129H805.522V24.9001H826.672V110.55H868.672V129Z" fill="black"/>
<path d="M953.504 76.3601V129H936.704L934.884 119.76C933.111 122.84 930.031 125.407 925.644 127.46C921.257 129.42 916.124 130.4 910.244 130.4C901.657 130.4 895.171 128.487 890.784 124.66C886.491 120.833 884.344 115.093 884.344 107.44C884.344 98.8534 886.911 92.7401 892.044 89.1001C897.177 85.3668 904.877 83.5001 915.144 83.5001H934.744V80.8401C934.744 77.6668 934.277 75.1468 933.344 73.2801C932.504 71.4134 930.871 70.0601 928.444 69.2201C926.017 68.2868 922.564 67.8201 918.084 67.8201C912.764 67.8201 907.397 68.3334 901.984 69.3601V53.2601C907.771 52.4201 913.837 52.0001 920.184 52.0001C932.224 52.0001 940.764 54.0534 945.804 58.1601C950.937 62.1734 953.504 68.2401 953.504 76.3601ZM914.584 115.84C919.437 115.84 923.637 114.953 927.184 113.18C930.731 111.407 933.251 108.98 934.744 105.9V96.5201H917.804C912.297 96.5201 908.424 97.2201 906.184 98.6201C904.037 100.02 902.964 102.773 902.964 106.88C902.964 109.96 903.897 112.247 905.764 113.74C907.631 115.14 910.571 115.84 914.584 115.84Z" fill="black"/>
<path d="M1053.07 91.2001C1053.07 103.427 1050.88 113.04 1046.49 120.04C1042.1 126.947 1034.22 130.4 1022.83 130.4C1016.02 130.4 1010.79 129.327 1007.15 127.18C1003.51 125.033 1000.9 121.953 999.31 117.94L997.91 129H980.83V22.6001H999.73V63.3401C1003.37 55.7801 1011.07 52.0001 1022.83 52.0001C1030.76 52.0001 1036.92 53.5868 1041.31 56.7601C1045.79 59.8401 1048.87 64.2268 1050.55 69.9201C1052.23 75.5201 1053.07 82.6134 1053.07 91.2001ZM1017.23 115.98C1023.95 115.98 1028.38 113.833 1030.53 109.54C1032.68 105.247 1033.75 99.1334 1033.75 91.2001C1033.75 85.7868 1033.33 81.3068 1032.49 77.7601C1031.74 74.2134 1030.16 71.4134 1027.73 69.3601C1025.3 67.3068 1021.8 66.2801 1017.23 66.2801C1010.23 66.2801 1005.38 68.3334 1002.67 72.4401C999.964 76.5468 998.61 82.8001 998.61 91.2001C998.61 99.4134 999.964 105.62 1002.67 109.82C1005.47 113.927 1010.32 115.98 1017.23 115.98Z" fill="black"/>
<path d="M410.32 76.3601V129H393.52L391.7 119.76C389.927 122.84 386.847 125.407 382.46 127.46C378.073 129.42 372.94 130.4 367.06 130.4C358.473 130.4 351.987 128.487 347.6 124.66C343.307 120.833 341.16 115.093 341.16 107.44C341.16 98.8534 343.727 92.7401 348.86 89.1001C353.993 85.3668 361.693 83.5001 371.96 83.5001H391.56V80.8401C391.56 77.6668 391.093 75.1468 390.16 73.2801C389.32 71.4134 387.687 70.0601 385.26 69.2201C382.833 68.2868 379.38 67.8201 374.9 67.8201C369.58 67.8201 364.213 68.3334 358.8 69.3601V53.2601C364.587 52.4201 370.653 52.0001 377 52.0001C389.04 52.0001 397.58 54.0534 402.62 58.1601C407.753 62.1734 410.32 68.2401 410.32 76.3601ZM371.4 115.84C376.253 115.84 380.453 114.953 384 113.18C387.547 111.407 390.067 108.98 391.56 105.9V96.5201H374.62C369.113 96.5201 365.24 97.2201 363 98.6201C360.853 100.02 359.78 102.773 359.78 106.88C359.78 109.96 360.713 112.247 362.58 113.74C364.447 115.14 367.387 115.84 371.4 115.84Z" stroke="black" stroke-width="3" mask="url(#path-1-outside-1_23_63)"/>
<path d="M437.506 110.8V22.6001H456.406V106.32C456.406 109.68 456.873 111.967 457.806 113.18C458.74 114.3 460.42 114.86 462.846 114.86C464.246 114.86 465.693 114.673 467.186 114.3V129C464.573 129.56 461.726 129.84 458.646 129.84C450.9 129.84 445.44 128.347 442.266 125.36C439.093 122.373 437.506 117.52 437.506 110.8Z" stroke="black" stroke-width="3" mask="url(#path-1-outside-1_23_63)"/>
<path d="M529.596 129L507.756 96.2401H504.256V129H485.356V22.6001H504.256V81.8201H508.596L529.456 53.4001H551.436L523.716 88.5401L552.556 129H529.596Z" stroke="black" stroke-width="3" mask="url(#path-1-outside-1_23_63)"/>
<path d="M569.016 53.4001H587.776V129H569.016V53.4001Z" stroke="black" stroke-width="3" mask="url(#path-1-outside-1_23_63)"/>
<path d="M682.304 77.2001V129H663.404V82.3801C663.404 76.8734 662.517 73.0468 660.744 70.9001C659.064 68.6601 655.751 67.5401 650.804 67.5401C646.137 67.5401 642.404 68.3801 639.604 70.0601C636.804 71.7401 634.751 74.6334 633.444 78.7401V129H614.544V53.4001H633.444V62.7801C635.497 59.1401 638.577 56.4334 642.684 54.6601C646.791 52.8868 651.597 52.0001 657.104 52.0001C666.251 52.0001 672.737 54.1001 676.564 58.3001C680.391 62.4068 682.304 68.7068 682.304 77.2001Z" stroke="black" stroke-width="3" mask="url(#path-1-outside-1_23_63)"/>
<path d="M736.458 157C729.738 157 722.738 156.393 715.458 155.18V140.06C721.618 141.553 728.198 142.3 735.198 142.3C743.504 142.3 749.478 140.807 753.118 137.82C756.851 134.833 758.718 129.7 758.718 122.42V117.66C757.038 121.393 754.378 124.24 750.738 126.2C747.191 128.067 742.151 129 735.618 129C724.044 129 716.018 125.733 711.538 119.2C707.058 112.667 704.818 103.1 704.818 90.5001C704.818 78.6468 707.104 69.2668 711.678 62.3601C716.251 55.4534 724.231 52.0001 735.618 52.0001C742.338 52.0001 747.471 53.0268 751.018 55.0801C754.564 57.0401 757.131 59.9334 758.718 63.7601V53.4001H777.338V123.26C777.338 134.273 774.164 142.627 767.818 148.32C761.471 154.107 751.018 157 736.458 157ZM740.798 115C745.838 115 749.711 114.067 752.418 112.2C755.218 110.333 757.084 107.673 758.018 104.22C759.044 100.673 759.558 96.1001 759.558 90.5001C759.558 85.0868 759.044 80.6534 758.018 77.2001C757.084 73.6534 755.218 70.9468 752.418 69.0801C749.711 67.2134 745.838 66.2801 740.798 66.2801C734.078 66.2801 729.644 68.4268 727.498 72.7201C725.351 76.9201 724.278 82.8468 724.278 90.5001C724.278 98.5268 725.351 104.64 727.498 108.84C729.738 112.947 734.171 115 740.798 115Z" stroke="black" stroke-width="3" mask="url(#path-1-outside-1_23_63)"/>
<path d="M868.672 129H805.522V24.9001H826.672V110.55H868.672V129Z" stroke="black" stroke-width="3" mask="url(#path-1-outside-1_23_63)"/>
<path d="M953.504 76.3601V129H936.704L934.884 119.76C933.111 122.84 930.031 125.407 925.644 127.46C921.257 129.42 916.124 130.4 910.244 130.4C901.657 130.4 895.171 128.487 890.784 124.66C886.491 120.833 884.344 115.093 884.344 107.44C884.344 98.8534 886.911 92.7401 892.044 89.1001C897.177 85.3668 904.877 83.5001 915.144 83.5001H934.744V80.8401C934.744 77.6668 934.277 75.1468 933.344 73.2801C932.504 71.4134 930.871 70.0601 928.444 69.2201C926.017 68.2868 922.564 67.8201 918.084 67.8201C912.764 67.8201 907.397 68.3334 901.984 69.3601V53.2601C907.771 52.4201 913.837 52.0001 920.184 52.0001C932.224 52.0001 940.764 54.0534 945.804 58.1601C950.937 62.1734 953.504 68.2401 953.504 76.3601ZM914.584 115.84C919.437 115.84 923.637 114.953 927.184 113.18C930.731 111.407 933.251 108.98 934.744 105.9V96.5201H917.804C912.297 96.5201 908.424 97.2201 906.184 98.6201C904.037 100.02 902.964 102.773 902.964 106.88C902.964 109.96 903.897 112.247 905.764 113.74C907.631 115.14 910.571 115.84 914.584 115.84Z" stroke="black" stroke-width="3" mask="url(#path-1-outside-1_23_63)"/>
<path d="M1053.07 91.2001C1053.07 103.427 1050.88 113.04 1046.49 120.04C1042.1 126.947 1034.22 130.4 1022.83 130.4C1016.02 130.4 1010.79 129.327 1007.15 127.18C1003.51 125.033 1000.9 121.953 999.31 117.94L997.91 129H980.83V22.6001H999.73V63.3401C1003.37 55.7801 1011.07 52.0001 1022.83 52.0001C1030.76 52.0001 1036.92 53.5868 1041.31 56.7601C1045.79 59.8401 1048.87 64.2268 1050.55 69.9201C1052.23 75.5201 1053.07 82.6134 1053.07 91.2001ZM1017.23 115.98C1023.95 115.98 1028.38 113.833 1030.53 109.54C1032.68 105.247 1033.75 99.1334 1033.75 91.2001C1033.75 85.7868 1033.33 81.3068 1032.49 77.7601C1031.74 74.2134 1030.16 71.4134 1027.73 69.3601C1025.3 67.3068 1021.8 66.2801 1017.23 66.2801C1010.23 66.2801 1005.38 68.3334 1002.67 72.4401C999.964 76.5468 998.61 82.8001 998.61 91.2001C998.61 99.4134 999.964 105.62 1002.67 109.82C1005.47 113.927 1010.32 115.98 1017.23 115.98Z" stroke="black" stroke-width="3" mask="url(#path-1-outside-1_23_63)"/>
<path d="M560 22.2717C570.423 17.531 574.717 12.4334 579.213 0C584.017 13.9085 588.159 19.0791 600.097 22.2717C587.929 25.796 583.757 30.5546 579.213 41.8708C572.999 29.5419 568.587 25.9832 560 22.2717Z" fill="url(#paint0_linear_23_63)" fill-opacity="0.8"/>
<path d="M103.952 139L0 5H103.952L132.309 67.898L168.33 5H221.979L287.123 139H221.979L191.323 67.898L162.966 139H103.952Z" fill="url(#paint1_linear_23_63)" fill-opacity="0.8"/>
<path d="M340.772 5H284.058L258.766 63.7959H313.948L340.772 5Z" fill="url(#paint2_linear_23_63)" fill-opacity="0.8"/>
<defs>
<linearGradient id="paint0_linear_23_63" x1="580.049" y1="0" x2="580.049" y2="41.8708" gradientUnits="userSpaceOnUse">
<stop stop-color="#881CF3"/>
<stop offset="1" stop-color="#3B0948"/>
</linearGradient>
<linearGradient id="paint1_linear_23_63" x1="170.386" y1="5" x2="170.386" y2="139" gradientUnits="userSpaceOnUse">
<stop stop-color="#881CF3"/>
<stop offset="1" stop-color="#3B0948"/>
</linearGradient>
<linearGradient id="paint2_linear_23_63" x1="170.386" y1="5" x2="170.386" y2="139" gradientUnits="userSpaceOnUse">
<stop stop-color="#881CF3"/>
<stop offset="1" stop-color="#3B0948"/>
</linearGradient>
</defs>
</svg>
